<?xml version="1.0" encoding="utf-8"?>
<!-- Generator: Adobe Illustrator 25.2.0, SVG Export Plug-In . SVG Version: 6.00 Build 0)  -->
<svg version="1.1" id="Layer_1" xmlns="http://www.w3.org/2000/svg" xmlns:xlink="http://www.w3.org/1999/xlink" x="0px" y="0px"
	 viewBox="0 0 300 300" style="enable-background:new 0 0 300 300;" xml:space="preserve">
<style type="text/css">
	.st0{fill:#808080;}
	.st1{fill:#133258;}
	.st2{fill:#FFFFFF;}
	.st3{fill:#0254A2;}
	.st4{fill:#FFFFFF;stroke:#FFFFFF;stroke-width:0.25;stroke-miterlimit:10;}
	.st5{font-family:'PTSans-Narrow';}
	.st6{font-size:14.7769px;}
	.st7{fill:#BE2026;}
</style>
<g>
	<polygon class="st0" points="149.41,64.91 149.41,64.91 149.42,64.91 	"/>
	<polygon class="st0" points="149.41,88.48 149.41,88.48 149.42,88.48 	"/>
	<path class="st1" d="M149.38,286.53l-1.26-0.62c-46.65-23-79.37-63.03-97.26-118.96c-2.86-8.94-5.34-18.32-7.39-27.93
		c-7.93,0.92-15.57,1.92-22.77,2.99l-3.27,0.49l-0.02-63.17l2.68-0.35c4.47-0.62,12.21-1.57,16.18-2.05l-0.01-27.34l113.12-36.11
		l113.1,36.11l-0.07,27.36l20.18,2.31v63.12l-3.2-0.39c-0.17-0.02-15.35-1.87-24.13-2.92c-2.09,9.73-4.62,19.31-7.36,27.89
		c-17.88,55.93-50.6,95.95-97.25,118.96L149.38,286.53z M48.01,132.75l0.52,2.56c2.11,10.3,4.72,20.36,7.77,29.9
		c17.23,53.89,48.55,92.56,93.08,114.95c44.54-22.39,75.85-61.06,93.08-114.95c2.92-9.14,5.6-19.46,7.75-29.87l0.53-2.57l2.6,0.31
		c5.93,0.7,17.83,2.15,23.54,2.84V84.34l-20.19-2.31l0.07-28.28L149.38,19.47L41.97,53.75l0.01,28.24l-2.52,0.3
		c-0.11,0.01-9.87,1.18-16.33,2.03v51.56c7.09-1.01,14.57-1.97,22.28-2.84L48.01,132.75z"/>
	<path class="st2" d="M39.12,51.67l0.01,27.79c0,0-12.7,1.51-18.84,2.37c0,0-0.01,0-0.01,0v57.36c8.22-1.22,16.73-2.32,25.45-3.3
		c2.03,9.92,4.6,20.04,7.85,30.2c17.66,55.21,49.86,94.61,95.8,117.27c45.94-22.65,78.14-62.06,95.8-117.27
		c3.19-9.97,5.82-20.42,7.83-30.16c8.02,0.95,26.73,3.23,26.73,3.23V81.79l-20.18-2.31l0.07-27.82L149.38,16.47L39.12,51.67"/>
	<path class="st1" d="M250.95,79.6l0.02-21.78l-27.18,20.29C233.9,78.56,248.57,79.43,250.95,79.6z"/>
	<path class="st1" d="M156.12,129.96l-84.43,63.11c3,6.55,6.24,12.83,9.76,18.78c16.78,28.39,39.51,49.91,67.96,64.27
		c42.29-21.35,71.95-58.48,88.2-110.51c3.26-10.42,5.91-21.1,7.85-31.24C215.5,131.44,184.29,130.15,156.12,129.96z"/>
	<path class="st3" d="M47.83,79.68c7.65-0.62,53.59-3.08,83.66-3.16c29.44-0.08,63.12,0.03,92.31,1.58l27.18-20.29
		c-0.01-0.32-0.02-0.66-0.03-0.98l-0.38-0.13l-38.52-12.76l-62.61-20.74L48.28,56.71l-0.39,0.13L47.83,79.68z"/>
	<path class="st3" d="M145.79,129.88c-38.19,0.29-62.16,1.93-92.33,4.53c1.95,10.37,4.42,20.54,7.76,31.21
		c3.02,9.68,6.53,18.82,10.48,27.45l84.43-63.11C152.48,129.92,149.47,129.85,145.79,129.88z"/>
	<path class="st2" d="M93.94,153.72c0.02,1.34-0.33,2.49-1.05,3.44c-0.47,0.65-1.14,1.1-2,1.37c-0.46,0.14-1,0.22-1.61,0.22
		c-1.14,0-2.08-0.28-2.83-0.85c-0.63-0.46-1.12-1.09-1.48-1.88c-0.36-0.79-0.58-1.7-0.64-2.73l2.77-0.2
		c0.12,1.12,0.42,1.94,0.89,2.44c0.35,0.38,0.75,0.56,1.2,0.54c0.64-0.02,1.14-0.33,1.52-0.94c0.19-0.3,0.29-0.72,0.29-1.28
		c0-0.8-0.36-1.6-1.09-2.39c-0.57-0.54-1.44-1.36-2.58-2.45c-0.96-0.93-1.65-1.77-2.04-2.51c-0.43-0.83-0.65-1.73-0.65-2.71
		c0-1.75,0.59-3.08,1.77-3.99c0.73-0.54,1.63-0.82,2.71-0.82c1.04,0,1.92,0.23,2.66,0.69c0.57,0.36,1.04,0.86,1.39,1.51
		c0.35,0.65,0.57,1.39,0.64,2.23l-2.78,0.51c-0.08-0.79-0.31-1.4-0.68-1.84c-0.27-0.32-0.65-0.48-1.15-0.48
		c-0.53,0-0.94,0.24-1.21,0.71c-0.23,0.38-0.34,0.85-0.34,1.41c0,0.88,0.38,1.78,1.14,2.69c0.29,0.35,0.72,0.76,1.29,1.23
		c0.68,0.56,1.12,0.96,1.34,1.18c0.72,0.72,1.27,1.42,1.66,2.12c0.18,0.33,0.33,0.63,0.45,0.91
		C93.79,152.56,93.93,153.17,93.94,153.72z"/>
	<path class="st2" d="M102.53,139c1.28,0,2.37,0.45,3.27,1.35c0.9,0.9,1.35,1.99,1.35,3.26v10.52c0,1.28-0.45,2.37-1.35,3.27
		c-0.9,0.9-1.99,1.35-3.26,1.35c-1.28,0-2.37-0.45-3.26-1.35c-0.89-0.9-1.34-1.99-1.34-3.26v-10.52c0-1.28,0.45-2.37,1.35-3.27
		C100.19,139.45,101.27,139,102.53,139z M104.11,143.55c0-0.46-0.16-0.85-0.48-1.18c-0.32-0.32-0.72-0.48-1.18-0.48
		c-0.46,0-0.86,0.16-1.18,0.48c-0.33,0.32-0.49,0.72-0.49,1.18v10.55c0,0.46,0.16,0.85,0.49,1.18c0.33,0.32,0.72,0.48,1.18,0.48
		c0.46,0,0.85-0.16,1.18-0.48c0.32-0.32,0.48-0.72,0.48-1.18V143.55z"/>
	<path class="st2" d="M115.88,158.76c-1.28,0-2.37-0.45-3.27-1.35c-0.9-0.9-1.35-1.98-1.35-3.25v-10.52c0-1.28,0.45-2.37,1.35-3.27
		c0.9-0.9,1.99-1.35,3.26-1.35c1.28,0,2.37,0.45,3.26,1.35c0.89,0.9,1.34,1.99,1.34,3.26v2.2h-3.01v-2.26
		c0-0.46-0.16-0.86-0.49-1.18c-0.33-0.33-0.72-0.49-1.18-0.49c-0.46,0-0.85,0.16-1.18,0.49c-0.32,0.33-0.48,0.72-0.48,1.18v10.55
		c0,0.46,0.16,0.85,0.48,1.18c0.32,0.32,0.72,0.48,1.18,0.48c0.46,0,0.86-0.16,1.18-0.48c0.33-0.32,0.49-0.72,0.49-1.18v-2.66h3.01
		v2.69c0,1.28-0.45,2.37-1.35,3.26C118.22,158.31,117.14,158.76,115.88,158.76z"/>
	<path class="st2" d="M129.05,158.76c-1.28,0-2.37-0.45-3.27-1.35c-0.9-0.9-1.35-1.98-1.35-3.25v-10.52c0-1.28,0.45-2.37,1.35-3.27
		c0.9-0.9,1.99-1.35,3.26-1.35c1.28,0,2.37,0.45,3.26,1.35c0.89,0.9,1.34,1.99,1.34,3.26v2.2h-3.01v-2.26
		c0-0.46-0.16-0.86-0.49-1.18c-0.33-0.33-0.72-0.49-1.18-0.49c-0.46,0-0.85,0.16-1.18,0.49c-0.32,0.33-0.48,0.72-0.48,1.18v10.55
		c0,0.46,0.16,0.85,0.48,1.18c0.32,0.32,0.72,0.48,1.18,0.48c0.46,0,0.86-0.16,1.18-0.48c0.33-0.32,0.49-0.72,0.49-1.18v-2.66h3.01
		v2.69c0,1.28-0.45,2.37-1.35,3.26C131.39,158.31,130.31,158.76,129.05,158.76z"/>
	<path class="st2" d="M137.65,158.52v-19.28h8.27v2.92h-5.37v5.26h3.92v2.92h-3.92v5.26h5.37v2.92H137.65z"/>
	<path class="st2" d="M154.13,139.25c1.62,0,2.81,0.45,3.57,1.34c0.67,0.78,1,1.87,1,3.26v2.8c0,1.36-0.52,2.52-1.55,3.46l2.15,8.41
		h-3.14l-1.76-7.26c-0.08,0-0.17,0-0.26,0h-1.68v7.26h-2.91v-19.26H154.13z M155.86,143.89c0-1.12-0.55-1.68-1.66-1.68h-1.75v6.16
		h1.75c0.46,0,0.85-0.16,1.18-0.49c0.32-0.33,0.48-0.72,0.48-1.18V143.89z"/>
	<path class="st2" d="M171.15,158.76c-1.28,0-2.37-0.45-3.27-1.35c-0.9-0.9-1.35-1.98-1.35-3.25v-10.52c0-1.28,0.45-2.37,1.35-3.27
		c0.9-0.9,1.99-1.35,3.26-1.35c1.28,0,2.37,0.45,3.26,1.35c0.89,0.9,1.34,1.99,1.34,3.26v2.2h-3.01v-2.26
		c0-0.46-0.16-0.86-0.49-1.18c-0.33-0.33-0.72-0.49-1.18-0.49c-0.46,0-0.85,0.16-1.18,0.49c-0.32,0.33-0.48,0.72-0.48,1.18v10.55
		c0,0.46,0.16,0.85,0.48,1.18c0.32,0.32,0.72,0.48,1.18,0.48c0.46,0,0.86-0.16,1.18-0.48c0.33-0.32,0.49-0.72,0.49-1.18v-2.66h3.01
		v2.69c0,1.28-0.45,2.37-1.35,3.26C173.49,158.31,172.41,158.76,171.15,158.76z"/>
	<path class="st2" d="M187.67,158.51h-7.92v-19.26h2.91v16.37h5.01V158.51z"/>
	<path class="st2" d="M195.89,158.73c-1.28,0-2.37-0.45-3.26-1.34c-0.89-0.89-1.34-1.97-1.34-3.24v-14.9h2.84v14.87
		c0,0.46,0.16,0.85,0.49,1.18c0.33,0.32,0.72,0.48,1.18,0.48c0.46,0,0.85-0.16,1.18-0.48c0.32-0.32,0.48-0.71,0.48-1.18v-14.87h3.03
		v14.9c0,1.29-0.45,2.38-1.35,3.26C198.24,158.29,197.16,158.73,195.89,158.73z"/>
	<path class="st2" d="M204.71,158.51v-19.28h4.35c1.15,0,2.18,0.3,3.11,0.91c0.79,0.51,1.35,1.31,1.69,2.38
		c0.18,0.57,0.28,1.26,0.28,2.04c0,1.29-0.34,2.33-1.03,3.11c-0.29,0.33-0.63,0.58-1.01,0.75c0.65,0.25,1.19,0.73,1.64,1.46
		c0.3,0.49,0.52,1.13,0.66,1.91c0.07,0.4,0.11,0.85,0.11,1.34c0,1.22-0.23,2.26-0.69,3.11c-0.36,0.67-0.87,1.2-1.52,1.6
		c-0.74,0.45-1.47,0.68-2.2,0.68H204.71z M207.84,147.1h1.21c0.9,0,1.51-0.44,1.81-1.32c0.11-0.33,0.17-0.73,0.17-1.21
		c0-0.8-0.2-1.4-0.58-1.81c-0.36-0.38-0.83-0.57-1.4-0.57h-1.21V147.1z M207.84,155.64h1.21c0.98,0,1.67-0.51,2.04-1.52
		c0.13-0.35,0.2-0.75,0.2-1.2c0-1.08-0.2-1.86-0.61-2.35c-0.37-0.45-0.91-0.68-1.63-0.68h-1.21V155.64z"/>
	<path class="st2" d="M149.29,239.9l0.26,0.05c-0.03-0.04-0.07-0.08-0.1-0.12L149.29,239.9z"/>
	<path class="st2" d="M123.94,53.51c0-0.18,0.01-0.36,0.01-0.54L53.78,65.04l70.96-5.15C124.22,57.85,123.94,55.72,123.94,53.51z"/>
	<path class="st2" d="M245.05,65.04L175.1,53.01c0.01,0.17,0.01,0.33,0.01,0.51c0,2.21-0.28,4.35-0.8,6.39L245.05,65.04z"/>
	<text transform="matrix(1 0 0 1 138.6365 48.4729)"><tspan x="0" y="0" class="st4 st5 st6">EST.</tspan><tspan x="-2.52" y="17.73" class="st4 st5 st6">2012</tspan></text>
	<path class="st2" d="M116.58,192.78c1.25-0.13,2.32-0.25,3.39-0.36c2.96-0.3,5.91-0.6,8.87-0.87c0.54-0.05,0.68-0.3,0.77-0.74
		c0.79-3.67,1.61-7.33,2.42-10.99c0.02-0.11,0.08-0.22,0.16-0.44c0.44,0.95,0.84,1.8,1.24,2.64c1.25,2.69,2.51,5.37,3.74,8.07
		c0.19,0.43,0.42,0.56,0.89,0.51c3.39-0.36,6.78-0.69,10.17-1.04c0.63-0.06,1.27-0.12,2.1-0.2c-0.96,0.83-1.77,1.54-2.59,2.25
		c-2.21,1.91-4.41,3.82-6.64,5.7c-0.33,0.28-0.34,0.49-0.17,0.86c1.59,3.38,3.15,6.77,4.72,10.15c0.08,0.16,0.15,0.33,0.29,0.65
		c-0.32-0.16-0.51-0.24-0.69-0.34c-3.32-1.83-6.64-3.66-9.94-5.51c-0.44-0.24-0.69-0.23-1.07,0.1c-2.88,2.51-5.78,5-8.67,7.5
		c-0.12,0.1-0.25,0.19-0.47,0.36c0.49-2.24,0.96-4.37,1.43-6.5c0.38-1.7,0.74-3.41,1.15-5.11c0.09-0.39,0-0.57-0.35-0.76
		c-3.36-1.84-6.71-3.7-10.06-5.55C117.09,193.08,116.92,192.98,116.58,192.78z"/>
	<path class="st2" d="M166.66,199.76c3.7-2.05,7.38-4.08,11.05-6.11c0.04,0.02,0.07,0.04,0.11,0.06c-1.73,3.72-3.45,7.43-5.2,11.19
		c3.16,2.73,6.32,5.45,9.63,8.3c-0.85-0.08-1.51-0.13-2.18-0.2c-3.37-0.34-6.74-0.68-10.11-1.04c-0.44-0.05-0.66,0.04-0.85,0.46
		c-1.56,3.41-3.15,6.81-4.74,10.21c-0.07,0.14-0.13,0.29-0.25,0.53c-0.09-0.2-0.15-0.3-0.18-0.42c-0.81-3.66-1.63-7.32-2.42-10.99
		c-0.11-0.5-0.31-0.66-0.84-0.71c-3.94-0.37-7.87-0.77-11.8-1.17c-0.06-0.01-0.12-0.03-0.32-0.08c0.26-0.16,0.43-0.28,0.61-0.38
		c3.33-1.85,6.66-3.69,10-5.52c0.38-0.21,0.51-0.39,0.41-0.84c-0.85-3.72-1.66-7.44-2.48-11.16c-0.02-0.09-0.03-0.19-0.07-0.43
		C160.31,194.29,163.48,197.02,166.66,199.76z"/>
	<path class="st2" d="M134.17,227.77c-2.51-3.3-5-6.59-7.49-9.88c0.02-0.04,0.04-0.08,0.06-0.12c4.03,1.25,8.07,2.51,12.16,3.78
		c2.49-3.29,4.99-6.57,7.48-9.86c0.05,0,0.09,0.01,0.14,0.01c0,0.2,0,0.41,0,0.61c0,3.67,0.01,7.34-0.01,11.01
		c0,0.45,0.12,0.65,0.6,0.79c3.69,1.12,7.36,2.28,11.04,3.43c0.18,0.06,0.35,0.11,0.64,0.21c-0.22,0.1-0.35,0.17-0.49,0.21
		c-3.72,1.16-7.43,2.33-11.15,3.46c-0.49,0.15-0.64,0.35-0.63,0.84c0.02,3.63,0.01,7.26,0.01,10.89c0,0.22,0,0.44,0,0.86
		c-0.22-0.28-0.34-0.42-0.45-0.56c-2.25-2.97-4.52-5.93-6.74-8.91c-0.33-0.44-0.61-0.49-1.13-0.33c-3.55,1.13-7.11,2.23-10.67,3.34
		c-0.23,0.07-0.47,0.12-0.82,0.08C129.18,234.34,131.67,231.07,134.17,227.77z"/>
	<path class="st7" d="M272.45,130.87c-81.52-9.73-163.14-9.71-244.88,0V87.4c81.55-6.33,163.18-6.34,244.88,0V130.87z"/>
	<path class="st2" d="M45.14,95.74c-2.3,0.2-4.6,0.41-6.9,0.63c0-1.7,0-3.41,0-5.11c6.75-0.64,13.5-1.22,20.26-1.74
		c0,1.7,0,3.41,0,5.11c-2.29,0.18-4.58,0.36-6.87,0.55c0,9.53,0,19.07,0,28.6c-2.16,0.18-4.33,0.37-6.49,0.56
		C45.14,114.81,45.14,105.27,45.14,95.74z"/>
	<path class="st2" d="M63.72,122.84c0-11.25,0-22.49,0-33.74c6.16-0.45,12.33-0.85,18.5-1.2c0,1.7,0,3.41,0,5.11
		c-4,0.23-8,0.48-12,0.74c0,3.07,0,6.13,0,9.2c2.92-0.2,5.84-0.38,8.77-0.56c0,1.7,0,3.41,0,5.11c-2.92,0.17-5.85,0.36-8.77,0.56
		c0,3.07,0,6.13,0,9.2c4-0.27,8-0.52,12-0.74c0,1.7,0,3.41,0,5.11C76.05,121.99,69.89,122.39,63.72,122.84z"/>
	<path class="st2" d="M93.99,87.29c2.88,7.42,5.75,14.86,8.63,22.3c0-7.56,0-15.12,0-22.67c2.17-0.09,4.34-0.17,6.51-0.24
		c0,11.25,0,22.49,0,33.74c-2.33,0.08-4.66,0.17-6.99,0.26c-2.98-7.08-5.96-14.15-8.95-21.21c0,7.2,0,14.4,0,21.6
		c-2.17,0.1-4.33,0.21-6.5,0.33c0-11.25,0-22.49,0-33.74C89.13,87.53,91.56,87.4,93.99,87.29z"/>
	<path class="st2" d="M122.25,86.3c2.88,7.49,5.76,14.99,8.64,22.51c0-7.56,0-15.12,0-22.67c2.17-0.03,4.34-0.06,6.51-0.08
		c0,11.25,0,22.49,0,33.74c-2.33,0.02-4.66,0.05-6.99,0.09c-2.98-7.15-5.97-14.3-8.95-21.43c0,7.2,0,14.4,0,21.6
		c-2.17,0.05-4.34,0.11-6.51,0.17c0-11.25,0-22.49,0-33.74C117.38,86.42,119.82,86.36,122.25,86.3z"/>
	<path class="st2" d="M143.21,119.75c0-11.25,0-22.49,0-33.74c6.18-0.03,12.35-0.02,18.53,0.05c0,1.7,0,3.41,0,5.11
		c-4.01-0.04-8.01-0.06-12.02-0.06c0,3.07,0,6.13,0,9.2c2.93,0,5.85,0.01,8.78,0.03c0,1.7,0,3.41,0,5.11
		c-2.93-0.02-5.85-0.03-8.78-0.03c0,3.07,0,6.13,0,9.2c4.01,0,8.01,0.02,12.02,0.06c0,1.7,0,3.41,0,5.11
		C155.56,119.73,149.39,119.71,143.21,119.75z"/>
	<path class="st2" d="M187.73,111.96c0.05,2.35-0.73,4.33-2.34,5.95c-1.06,1.1-2.55,1.85-4.47,2.27c-1.03,0.22-2.24,0.32-3.62,0.29
		c-2.55-0.06-4.66-0.6-6.34-1.61c-1.4-0.83-2.51-1.95-3.32-3.35c-0.81-1.4-1.29-3-1.43-4.8c2.07-0.09,4.13-0.17,6.2-0.25
		c0.28,1.97,0.94,3.41,2,4.31c0.78,0.68,1.68,1.02,2.69,1.01c1.42,0,2.56-0.52,3.41-1.56c0.44-0.51,0.65-1.25,0.65-2.22
		c0-1.4-0.81-2.81-2.44-4.24c-1.29-0.98-3.21-2.46-5.78-4.41c-2.16-1.68-3.68-3.16-4.58-4.47c-0.96-1.47-1.45-3.06-1.45-4.76
		c0-3.07,1.32-5.38,3.96-6.91c1.63-0.92,3.65-1.36,6.06-1.3c2.32,0.05,4.3,0.51,5.96,1.36c1.28,0.66,2.32,1.57,3.11,2.73
		c0.79,1.15,1.27,2.47,1.43,3.95c-2.08,0.23-4.15,0.46-6.23,0.7c-0.18-1.39-0.69-2.48-1.51-3.27c-0.6-0.57-1.46-0.87-2.58-0.9
		c-1.19-0.03-2.1,0.36-2.72,1.18c-0.51,0.65-0.76,1.47-0.76,2.46c0,1.54,0.85,3.13,2.55,4.76c0.64,0.62,1.61,1.36,2.89,2.22
		c1.52,1.02,2.51,1.74,3,2.15c1.61,1.3,2.85,2.58,3.72,3.82c0.41,0.59,0.75,1.13,1,1.62C187.39,109.92,187.71,111.01,187.73,111.96z
		"/>
	<path class="st2" d="M213.71,113.09c0.05,2.35-0.73,4.32-2.34,5.9c-1.06,1.07-2.55,1.8-4.47,2.17c-1.03,0.2-2.24,0.27-3.61,0.21
		c-2.55-0.12-4.66-0.7-6.33-1.75c-1.4-0.86-2.51-2.01-3.32-3.43c-0.81-1.42-1.29-3.03-1.43-4.83c2.07-0.04,4.13-0.08,6.2-0.11
		c0.27,1.98,0.94,3.43,2,4.36c0.78,0.7,1.67,1.06,2.68,1.07c1.42,0.03,2.56-0.46,3.41-1.48c0.44-0.5,0.65-1.23,0.65-2.2
		c0-1.4-0.81-2.83-2.44-4.29c-1.29-1.01-3.21-2.53-5.78-4.54c-2.16-1.72-3.68-3.25-4.58-4.57c-0.96-1.49-1.45-3.09-1.45-4.79
		c0-3.07,1.32-5.35,3.96-6.82c1.63-0.89,3.65-1.28,6.06-1.17c2.32,0.11,4.3,0.61,5.95,1.5c1.28,0.69,2.32,1.63,3.11,2.8
		c0.79,1.17,1.27,2.5,1.43,3.98c-2.08,0.18-4.15,0.37-6.23,0.57c-0.18-1.39-0.69-2.49-1.51-3.3c-0.6-0.58-1.46-0.9-2.58-0.95
		c-1.19-0.05-2.1,0.32-2.72,1.12c-0.51,0.64-0.76,1.46-0.76,2.44c0,1.54,0.85,3.15,2.55,4.82c0.64,0.64,1.61,1.4,2.89,2.28
		c1.51,1.06,2.51,1.8,2.99,2.22c1.61,1.34,2.84,2.64,3.72,3.9c0.41,0.6,0.75,1.14,1,1.64C213.37,111.04,213.69,112.14,213.71,113.09
		z"/>
	<path class="st2" d="M219.11,121.79c0-11.25,0-22.49,0-33.74c6.17,0.36,12.33,0.78,18.5,1.24c0,1.7,0,3.41,0,5.11
		c-4-0.3-8-0.58-12-0.84c0,3.07,0,6.13,0,9.2c2.92,0.19,5.84,0.39,8.77,0.6c0,1.7,0,3.41,0,5.11c-2.92-0.21-5.84-0.41-8.77-0.6
		c0,3.07,0,6.13,0,9.2c4,0.26,8,0.54,12,0.84c0,1.7,0,3.41,0,5.11C231.44,122.57,225.28,122.15,219.11,121.79z"/>
	<path class="st2" d="M242.07,123.37c0-11.25,0-22.49,0-33.74c6.16,0.49,12.32,1.02,18.47,1.6c0,1.7,0,3.41,0,5.11
		c-3.99-0.38-7.99-0.73-11.98-1.07c0,3.07,0,6.13,0,9.2c2.92,0.25,5.84,0.5,8.76,0.77c0,1.7,0,3.41,0,5.11
		c-2.92-0.27-5.84-0.52-8.76-0.77c0,3.07,0,6.13,0,9.2c4,0.34,7.99,0.69,11.98,1.07c0,1.7,0,3.41,0,5.11
		C254.39,124.39,248.23,123.86,242.07,123.37z"/>
</g>
</svg>
